<svg width="32" height="36" viewBox="0 0 32 36" fill="none" xmlns="http://www.w3.org/2000/svg">
<path d="M7.402 13.146V16.818H11.722V18.492H7.402V22.326H12.262V24H5.35V11.472H12.262V13.146H7.402ZM24.2035 15.09C23.8795 14.466 23.4295 13.998 22.8535 13.686C22.2775 13.362 21.6115 13.2 20.8555 13.2C20.0275 13.2 19.2895 13.386 18.6415 13.758C17.9935 14.13 17.4835 14.658 17.1115 15.342C16.7515 16.026 16.5715 16.818 16.5715 17.718C16.5715 18.618 16.7515 19.416 17.1115 20.112C17.4835 20.796 17.9935 21.324 18.6415 21.696C19.2895 22.068 20.0275 22.254 20.8555 22.254C21.9715 22.254 22.8775 21.942 23.5735 21.318C24.2695 20.694 24.6955 19.848 24.8515 18.78H20.1535V17.142H27.0475V18.744C26.9155 19.716 26.5675 20.61 26.0035 21.426C25.4515 22.242 24.7255 22.896 23.8255 23.388C22.9375 23.868 21.9475 24.108 20.8555 24.108C19.6795 24.108 18.6055 23.838 17.6335 23.298C16.6615 22.746 15.8875 21.984 15.3115 21.012C14.7475 20.04 14.4655 18.942 14.4655 17.718C14.4655 16.494 14.7475 15.396 15.3115 14.424C15.8875 13.452 16.6615 12.696 17.6335 12.156C18.6175 11.604 19.6915 11.328 20.8555 11.328C22.1875 11.328 23.3695 11.658 24.4015 12.318C25.4455 12.966 26.2015 13.89 26.6695 15.09H24.2035Z" fill="#FD7014"/>
<path fill-rule="evenodd" clip-rule="evenodd" d="M28.8246 8.71708L17.4434 2.12543C17.0045 1.87124 16.5067 1.73742 16 1.73742C15.4933 1.73742 14.9955 1.87124 14.5566 2.12543L3.17543 8.71754C2.73656 8.97174 2.37213 9.33737 2.11876 9.77767C1.8654 10.218 1.73202 10.7174 1.73205 11.2258V24.4105C1.7321 24.9189 1.86552 25.4182 2.11888 25.8584C2.37224 26.2986 2.73663 26.6642 3.17543 26.9184L14.5562 33.5109C14.995 33.7651 15.4928 33.8989 15.9995 33.8989C16.5063 33.8989 17.0041 33.7651 17.4429 33.5109L28.8246 26.9184C29.2634 26.6642 29.6279 26.2985 29.8812 25.8582C30.1346 25.4179 30.268 24.9185 30.2679 24.4101V11.2258C30.268 10.7174 30.1346 10.218 29.8812 9.77767C29.6279 9.33737 29.2634 8.97174 28.8246 8.71754V8.71708ZM18.3094 0.620818C17.6073 0.214113 16.8108 0 16 0C15.1892 0 14.3927 0.214113 13.6906 0.620818L2.3094 7.21247C1.60727 7.61916 1.02422 8.20411 0.618832 8.90852C0.213448 9.61293 2.05963e-05 10.412 0 11.2254V24.4101C2.05963e-05 25.2235 0.213448 26.0225 0.618832 26.7269C1.02422 27.4313 1.60727 28.0163 2.3094 28.423L13.6901 35.0155C14.3923 35.4223 15.1888 35.6364 15.9995 35.6364C16.8103 35.6364 17.6068 35.4223 18.3089 35.0155L29.6906 28.4234C30.3927 28.0167 30.9758 27.4318 31.3812 26.7274C31.7866 26.023 32 25.2239 32 24.4105V11.2258C32 10.4125 31.7866 9.6134 31.3812 8.90898C30.9758 8.20457 30.3927 7.61962 29.6906 7.21293L18.3094 0.619891V0.620818Z" fill="#FD7014"/>
</svg>
