<svg width="88" height="98" viewBox="0 0 88 98" fill="none" xmlns="http://www.w3.org/2000/svg">
<path d="M20.45 35.85V46.05H32.45V50.7H20.45V61.35H33.95V66H14.75V31.2H33.95V35.85H20.45ZM67.1207 41.25C66.2207 39.5167 64.9707 38.2167 63.3707 37.35C61.7707 36.45 59.9207 36 57.8207 36C55.5207 36 53.4707 36.5167 51.6707 37.55C49.8707 38.5833 48.454 40.05 47.4207 41.95C46.4207 43.85 45.9207 46.05 45.9207 48.55C45.9207 51.05 46.4207 53.2667 47.4207 55.2C48.454 57.1 49.8707 58.5667 51.6707 59.6C53.4707 60.6333 55.5207 61.15 57.8207 61.15C60.9207 61.15 63.4374 60.2833 65.3707 58.55C67.304 56.8167 68.4874 54.4667 68.9207 51.5H55.8707V46.95H75.0207V51.4C74.654 54.1 73.6874 56.5833 72.1207 58.85C70.5874 61.1167 68.5707 62.9333 66.0707 64.3C63.604 65.6333 60.854 66.3 57.8207 66.3C54.554 66.3 51.5707 65.55 48.8707 64.05C46.1707 62.5167 44.0207 60.4 42.4207 57.7C40.854 55 40.0707 51.95 40.0707 48.55C40.0707 45.15 40.854 42.1 42.4207 39.4C44.0207 36.7 46.1707 34.6 48.8707 33.1C51.604 31.5667 54.5874 30.8 57.8207 30.8C61.5207 30.8 64.804 31.7167 67.6707 33.55C70.5707 35.35 72.6707 37.9167 73.9707 41.25H67.1207Z" fill="#FD7014"/>
<path fill-rule="evenodd" clip-rule="evenodd" d="M79.2676 23.972L47.9693 5.84493C46.7625 5.1459 45.3935 4.7779 44 4.7779C42.6065 4.7779 41.2375 5.1459 40.0307 5.84493L8.73243 23.9732C7.52555 24.6723 6.52336 25.6778 5.8266 26.8886C5.12984 28.0994 4.76307 29.4729 4.76314 30.8711V67.129C4.76329 68.5269 5.13017 69.9001 5.82692 71.1107C6.52366 72.3213 7.52573 73.3265 8.73243 74.0255L40.0294 92.1551C41.2363 92.8541 42.6052 93.2221 43.9987 93.2221C45.3922 93.2221 46.7612 92.8541 47.968 92.1551L79.2676 74.0255C80.4744 73.3264 81.4766 72.321 82.1734 71.1101C82.8702 69.8993 83.2369 68.5258 83.2369 67.1277V30.8711C83.2369 29.4729 82.8702 28.0994 82.1734 26.8886C81.4766 25.6778 80.4744 24.6723 79.2676 23.9732V23.972ZM50.3509 1.70725C48.4199 0.58881 46.2296 0 44 0C41.7704 0 39.58 0.58881 37.6491 1.70725L6.35086 19.8343C4.42 20.9527 2.81659 22.5613 1.70179 24.4984C0.586982 26.4356 5.66397e-05 28.633 0 30.8698V67.1277C5.66397e-05 69.3645 0.586982 71.5619 1.70179 73.499C2.81659 75.4362 4.42 77.0448 6.35086 78.1632L37.6479 96.2928C39.5788 97.4112 41.7691 98 43.9987 98C46.2283 98 48.4187 97.4112 50.3496 96.2928L81.6491 78.1645C83.58 77.046 85.1834 75.4374 86.2982 73.5003C87.413 71.5632 87.9999 69.3658 88 67.129V30.8711C87.9999 28.6342 87.413 26.4368 86.2982 24.4997C85.1834 22.5626 83.58 20.954 81.6491 19.8356L50.3509 1.7047V1.70725Z" fill="#FD7014"/>
</svg>
