<svg width="32" height="32" viewBox="0 0 32 32" fill="none" xmlns="http://www.w3.org/2000/svg">
<path d="M14.4999 25.7333L5.69992 16.9333C5.56659 16.8 5.47192 16.6556 5.41592 16.5C5.36081 16.3444 5.33325 16.1778 5.33325 16C5.33325 15.8222 5.36081 15.6556 5.41592 15.5C5.47192 15.3444 5.56659 15.2 5.69992 15.0667L14.4999 6.26666C14.7444 6.02222 15.0497 5.89422 15.4159 5.88266C15.783 5.872 16.0999 6 16.3666 6.26666C16.6333 6.51111 16.7724 6.81644 16.7839 7.18266C16.7946 7.54978 16.6666 7.86666 16.3999 8.13333L9.86659 14.6667H24.7666C25.1444 14.6667 25.4613 14.7942 25.7173 15.0493C25.9724 15.3053 26.0999 15.6222 26.0999 16C26.0999 16.3778 25.9724 16.6942 25.7173 16.9493C25.4613 17.2053 25.1444 17.3333 24.7666 17.3333H9.86659L16.3999 23.8667C16.6444 24.1111 16.7724 24.4222 16.7839 24.8C16.7946 25.1778 16.6666 25.4889 16.3999 25.7333C16.1555 26 15.8444 26.1333 15.4666 26.1333C15.0888 26.1333 14.7666 26 14.4999 25.7333Z" fill="#EEEEEE"/>
</svg>
