<svg width="32" height="32" viewBox="0 0 32 32" fill="none" xmlns="http://www.w3.org/2000/svg">
<path d="M15.0667 25.7334C14.8222 25.4889 14.6942 25.1778 14.6827 24.8C14.672 24.4222 14.7889 24.1111 15.0333 23.8667L21.5667 17.3334H6.66667C6.28889 17.3334 5.972 17.2054 5.716 16.9494C5.46089 16.6942 5.33333 16.3778 5.33333 16C5.33333 15.6222 5.46089 15.3054 5.716 15.0494C5.972 14.7942 6.28889 14.6667 6.66667 14.6667H21.5667L15.0333 8.13336C14.7889 7.88891 14.672 7.5778 14.6827 7.20002C14.6942 6.82225 14.8222 6.51114 15.0667 6.26669C15.3111 6.02225 15.6222 5.90002 16 5.90002C16.3778 5.90002 16.6889 6.02225 16.9333 6.26669L25.7333 15.0667C25.8667 15.1778 25.9613 15.3165 26.0173 15.4827C26.0724 15.6498 26.1 15.8222 26.1 16C26.1 16.1778 26.0724 16.3445 26.0173 16.5C25.9613 16.6556 25.8667 16.8 25.7333 16.9334L16.9333 25.7334C16.6889 25.9778 16.3778 26.1 16 26.1C15.6222 26.1 15.3111 25.9778 15.0667 25.7334Z" fill="#EEEEEE"/>
</svg>
