<svg width="32" height="32" viewBox="0 0 32 32" fill="none" xmlns="http://www.w3.org/2000/svg">
<path d="M21.3333 12.5333L9.49995 24.4C9.23328 24.6667 8.9164 24.8 8.54928 24.8C8.18306 24.8 7.86662 24.6667 7.59995 24.4C7.33328 24.1333 7.19995 23.8164 7.19995 23.4493C7.19995 23.0831 7.33328 22.7667 7.59995 22.5L19.4666 10.6667H9.33328C8.95551 10.6667 8.63862 10.5391 8.38262 10.284C8.12751 10.028 7.99995 9.71111 7.99995 9.33333C7.99995 8.95556 8.12751 8.63867 8.38262 8.38267C8.63862 8.12756 8.95551 8 9.33328 8H22.6666C23.0444 8 23.3608 8.12756 23.616 8.38267C23.872 8.63867 24 8.95556 24 9.33333V22.6667C24 23.0444 23.872 23.3609 23.616 23.616C23.3608 23.872 23.0444 24 22.6666 24C22.2888 24 21.9724 23.872 21.7173 23.616C21.4613 23.3609 21.3333 23.0444 21.3333 22.6667V12.5333Z" fill="#EEEEEE"/>
</svg>
