<svg width="32" height="32" viewBox="0 0 32 32" fill="none" xmlns="http://www.w3.org/2000/svg">
<path d="M15.9999 20.7666C15.8221 20.7666 15.6555 20.7386 15.4999 20.6826C15.3444 20.6275 15.1999 20.5333 15.0666 20.4L10.2666 15.6C10.0221 15.3555 9.89992 15.0444 9.89992 14.6666C9.89992 14.2889 10.0221 13.9778 10.2666 13.7333C10.511 13.4889 10.8275 13.3609 11.2159 13.3493C11.6053 13.3386 11.9221 13.4555 12.1666 13.7L14.6666 16.2V6.66665C14.6666 6.28887 14.7946 5.97198 15.0506 5.71598C15.3057 5.46087 15.6221 5.33331 15.9999 5.33331C16.3777 5.33331 16.6946 5.46087 16.9506 5.71598C17.2057 5.97198 17.3333 6.28887 17.3333 6.66665V16.2L19.8333 13.7C20.0777 13.4555 20.3946 13.3386 20.7839 13.3493C21.1724 13.3609 21.4888 13.4889 21.7333 13.7333C21.9777 13.9778 22.0999 14.2889 22.0999 14.6666C22.0999 15.0444 21.9777 15.3555 21.7333 15.6L16.9333 20.4C16.7999 20.5333 16.6555 20.6275 16.4999 20.6826C16.3444 20.7386 16.1777 20.7666 15.9999 20.7666ZM7.99992 26.6666C7.26659 26.6666 6.63903 26.4058 6.11725 25.884C5.59459 25.3613 5.33325 24.7333 5.33325 24V21.3333C5.33325 20.9555 5.46081 20.6386 5.71592 20.3826C5.97192 20.1275 6.28881 20 6.66659 20C7.04436 20 7.36125 20.1275 7.61725 20.3826C7.87236 20.6386 7.99992 20.9555 7.99992 21.3333V24H23.9999V21.3333C23.9999 20.9555 24.1279 20.6386 24.3839 20.3826C24.639 20.1275 24.9555 20 25.3333 20C25.711 20 26.0275 20.1275 26.2826 20.3826C26.5386 20.6386 26.6666 20.9555 26.6666 21.3333V24C26.6666 24.7333 26.4057 25.3613 25.8839 25.884C25.3613 26.4058 24.7333 26.6666 23.9999 26.6666H7.99992Z" fill="#FD7014"/>
</svg>
