<svg width="32" height="32" viewBox="0 0 32 32" fill="none" xmlns="http://www.w3.org/2000/svg">
<path d="M16 2.66666C14.249 2.66666 12.5152 3.01154 10.8976 3.6816C9.27988 4.35167 7.81003 5.33379 6.57191 6.57191C4.07143 9.07239 2.66667 12.4638 2.66667 16C2.66667 21.8933 6.49333 26.8933 11.7867 28.6667C12.4533 28.7733 12.6667 28.36 12.6667 28V25.7467C8.97333 26.5467 8.18667 23.96 8.18667 23.96C7.57333 22.4133 6.70667 22 6.70667 22C5.49333 21.1733 6.8 21.2 6.8 21.2C8.13333 21.2933 8.84 22.5733 8.84 22.5733C10 24.6 11.96 24 12.72 23.68C12.84 22.8133 13.1867 22.2267 13.56 21.8933C10.6 21.56 7.49333 20.4133 7.49333 15.3333C7.49333 13.8533 8 12.6667 8.86667 11.72C8.73333 11.3867 8.26667 10 9 8.2C9 8.2 10.12 7.84 12.6667 9.56C13.72 9.26666 14.8667 9.12 16 9.12C17.1333 9.12 18.28 9.26666 19.3333 9.56C21.88 7.84 23 8.2 23 8.2C23.7333 10 23.2667 11.3867 23.1333 11.72C24 12.6667 24.5067 13.8533 24.5067 15.3333C24.5067 20.4267 21.3867 21.5467 18.4133 21.88C18.8933 22.2933 19.3333 23.1067 19.3333 24.3467V28C19.3333 28.36 19.5467 28.7867 20.2267 28.6667C25.52 26.88 29.3333 21.8933 29.3333 16C29.3333 14.249 28.9885 12.5152 28.3184 10.8976C27.6483 9.27988 26.6662 7.81002 25.4281 6.57191C24.19 5.33379 22.7201 4.35167 21.1024 3.6816C19.4848 3.01154 17.751 2.66666 16 2.66666Z" fill="#EEEEEE"/>
</svg>
