<svg width="81" height="81" viewBox="0 0 81 81" fill="none" xmlns="http://www.w3.org/2000/svg">
<path fill-rule="evenodd" clip-rule="evenodd" d="M68.2659 20.86L43.6249 6.63496C42.6748 6.08641 41.597 5.79762 40.4999 5.79762C39.4028 5.79762 38.325 6.08641 37.3749 6.63496L12.7339 20.861C11.7837 21.4095 10.9947 22.1986 10.4461 23.1488C9.89759 24.099 9.60883 25.1768 9.60889 26.274V54.727C9.609 55.824 9.89785 56.9016 10.4464 57.8516C10.9949 58.8016 11.7839 59.5905 12.7339 60.139L37.3739 74.366C38.324 74.9145 39.4018 75.2033 40.4989 75.2033C41.596 75.2033 42.6738 74.9145 43.6239 74.366L68.2659 60.139C69.2161 59.5904 70.0051 58.8013 70.5536 57.8512C71.1022 56.901 71.3909 55.8231 71.3909 54.726V26.274C71.3909 25.1768 71.1022 24.099 70.5536 23.1488C70.0051 22.1986 69.2161 21.4095 68.2659 20.861V20.86ZM45.4999 3.38796C43.9797 2.51028 42.2553 2.04822 40.4999 2.04822C38.7445 2.04822 37.0201 2.51028 35.4999 3.38796L10.8589 17.613C9.33873 18.4906 8.07638 19.753 7.1987 21.2731C6.32102 22.7933 5.85893 24.5176 5.85889 26.273V54.726C5.85893 56.4813 6.32102 58.2057 7.1987 59.7258C8.07638 61.246 9.33873 62.5083 10.8589 63.386L35.4989 77.613C37.0191 78.4906 38.7435 78.9527 40.4989 78.9527C42.2543 78.9527 43.9787 78.4906 45.4989 77.613L70.1409 63.387C71.661 62.5093 72.9234 61.247 73.8011 59.7268C74.6788 58.2067 75.1408 56.4823 75.1409 54.727V26.274C75.1408 24.5186 74.6788 22.7943 73.8011 21.2741C72.9234 19.754 71.661 18.4916 70.1409 17.614L45.4999 3.38596V3.38796Z" fill="#239120"/>
<g clip-path="url(#clip0_238_97)">
<path d="M40.5 21.5C35.4609 21.5 30.6282 23.5018 27.065 27.065C23.5018 30.6282 21.5 35.4609 21.5 40.5C21.5 45.5391 23.5018 50.3718 27.065 53.935C30.6282 57.4982 35.4609 59.5 40.5 59.5C45.5391 59.5 50.3718 57.4982 53.935 53.935C57.4982 50.3718 59.5 45.5391 59.5 40.5C59.5 35.4609 57.4982 30.6282 53.935 27.065C50.3718 23.5018 45.5391 21.5 40.5 21.5V21.5ZM36.4245 32.7733C37.5001 32.7798 38.5654 32.9838 39.5674 33.375V35.2449C38.4787 34.6399 37.2503 34.331 36.0049 34.3488C35.2295 34.323 34.4576 34.4632 33.7407 34.76C33.0239 35.0568 32.3788 35.5034 31.8487 36.0698C30.7373 37.3373 30.1626 38.9874 30.2463 40.671C30.1635 42.2632 30.6996 43.8257 31.7426 45.0315C32.2423 45.5686 32.8522 45.9913 33.5305 46.2709C34.2087 46.5504 34.9394 46.6802 35.6724 46.6513C37.0408 46.6852 38.3917 46.3377 39.5737 45.6474L39.5674 47.3574C38.2749 47.9863 36.8476 48.288 35.4112 48.2362C34.4621 48.2777 33.5152 48.116 32.6337 47.7618C31.7522 47.4077 30.9566 46.8692 30.3002 46.1826C28.9799 44.7032 28.2911 42.7658 28.3812 40.785C28.3353 39.7229 28.503 38.6624 28.8742 37.6662C29.2454 36.67 29.8127 35.7584 30.5424 34.9853C31.2553 34.2556 32.1125 33.6827 33.0594 33.3032C34.0062 32.9237 35.0219 32.7459 36.0413 32.7812C36.1046 32.7785 36.168 32.7763 36.2313 32.7749C36.2957 32.7742 36.3601 32.7742 36.4245 32.7749V32.7733ZM45.7076 33.0188H47.0312L46.1525 37.2178H48.7824L49.6802 33.0188H50.9627L50.0839 37.2178L52.8263 37.2114L52.5888 38.315H49.8575L49.2052 41.45H52.1375L51.8588 42.5552H48.9835L48.0652 46.7114H46.751L47.6488 42.5552H45.0363L44.1575 46.7114H42.875L43.7538 42.5552H40.9988L41.2062 41.45H43.9738L44.6088 38.3213H41.7176L41.9361 37.2178H44.8272L45.7076 33.0188ZM45.9324 38.315L45.25 41.45H47.8989L48.5687 38.315H45.9324Z" fill="#239120"/>
</g>
<defs>
<clipPath id="clip0_238_97">
<rect width="38" height="38" fill="white" transform="translate(21.5 21.5)"/>
</clipPath>
</defs>
</svg>
