<svg width="80" height="80" viewBox="0 0 80 80" fill="none" xmlns="http://www.w3.org/2000/svg">
<path fill-rule="evenodd" clip-rule="evenodd" d="M67.7659 20.36L43.1249 6.13496C42.1748 5.58641 41.097 5.29762 39.9999 5.29762C38.9028 5.29762 37.825 5.58641 36.8749 6.13496L12.2339 20.361C11.2837 20.9095 10.4947 21.6986 9.94614 22.6488C9.39759 23.599 9.10883 24.6768 9.10889 25.774V54.227C9.109 55.324 9.39785 56.4016 9.94639 57.3516C10.4949 58.3016 11.2839 59.0905 12.2339 59.639L36.8739 73.866C37.824 74.4145 38.9018 74.7033 39.9989 74.7033C41.096 74.7033 42.1738 74.4145 43.1239 73.866L67.7659 59.639C68.7161 59.0904 69.5051 58.3013 70.0536 57.3512C70.6022 56.401 70.8909 55.3231 70.8909 54.226V25.774C70.8909 24.6768 70.6022 23.599 70.0536 22.6488C69.5051 21.6986 68.7161 20.9095 67.7659 20.361V20.36ZM44.9999 2.88796C43.4797 2.01028 41.7553 1.54822 39.9999 1.54822C38.2445 1.54822 36.5201 2.01028 34.9999 2.88796L10.3589 17.113C8.83873 17.9906 7.57638 19.253 6.6987 20.7731C5.82102 22.2933 5.35893 24.0176 5.35889 25.773V54.226C5.35893 55.9813 5.82102 57.7057 6.6987 59.2258C7.57638 60.746 8.83873 62.0083 10.3589 62.886L34.9989 77.113C36.5191 77.9906 38.2435 78.4527 39.9989 78.4527C41.7543 78.4527 43.4787 77.9906 44.9989 77.113L69.6409 62.887C71.161 62.0093 72.4234 60.747 73.3011 59.2268C74.1788 57.7067 74.6408 55.9823 74.6409 54.227V25.774C74.6408 24.0186 74.1788 22.2943 73.3011 20.7741C72.4234 19.254 71.161 17.9916 69.6409 17.114L44.9999 2.88596V2.88796Z" fill="#1572B6"/>
<path d="M23.375 21H56.625L53.6008 55.1414L39.9636 59L26.4023 55.1398L23.375 21ZM50.4342 27.9873L29.5658 27.9825L29.9031 32.134L45.9343 32.1372L45.5306 36.4375H35.0173L35.3973 40.5114H45.1854L44.6059 46.0895L39.9984 47.3625L35.3181 46.08L35.0204 42.7392H30.8879L31.3471 48.8429L40 51.5393L48.5072 49.1168L50.4342 27.9888V27.9873Z" fill="#1572B6"/>
</svg>
