<svg width="81" height="80" viewBox="0 0 81 80" fill="none" xmlns="http://www.w3.org/2000/svg">
<path fill-rule="evenodd" clip-rule="evenodd" d="M68.2659 20.36L43.6249 6.13496C42.6748 5.58641 41.597 5.29762 40.4999 5.29762C39.4028 5.29762 38.325 5.58641 37.3749 6.13496L12.7339 20.361C11.7837 20.9095 10.9947 21.6986 10.4461 22.6488C9.89759 23.599 9.60883 24.6768 9.60889 25.774V54.227C9.609 55.324 9.89785 56.4016 10.4464 57.3516C10.9949 58.3016 11.7839 59.0905 12.7339 59.639L37.3739 73.866C38.324 74.4145 39.4018 74.7033 40.4989 74.7033C41.596 74.7033 42.6738 74.4145 43.6239 73.866L68.2659 59.639C69.2161 59.0904 70.0051 58.3013 70.5536 57.3512C71.1022 56.401 71.3909 55.3231 71.3909 54.226V25.774C71.3909 24.6768 71.1022 23.599 70.5536 22.6488C70.0051 21.6986 69.2161 20.9095 68.2659 20.361V20.36ZM45.4999 2.88796C43.9797 2.01028 42.2553 1.54822 40.4999 1.54822C38.7445 1.54822 37.0201 2.01028 35.4999 2.88796L10.8589 17.113C9.33873 17.9906 8.07638 19.253 7.1987 20.7731C6.32102 22.2933 5.85893 24.0176 5.85889 25.773V54.226C5.85893 55.9813 6.32102 57.7057 7.1987 59.2258C8.07638 60.746 9.33873 62.0083 10.8589 62.886L35.4989 77.113C37.0191 77.9906 38.7435 78.4527 40.4989 78.4527C42.2543 78.4527 43.9787 77.9906 45.4989 77.113L70.1409 62.887C71.661 62.0093 72.9234 60.747 73.8011 59.2268C74.6788 57.7067 75.1408 55.9823 75.1409 54.227V25.774C75.1408 24.0186 74.6788 22.2943 73.8011 20.7741C72.9234 19.254 71.661 17.9916 70.1409 17.114L45.4999 2.88596V2.88796Z" fill="#F24E1E"/>
<g clip-path="url(#clip0_238_146)">
<path d="M34 59C37.588 59 40.5 56.088 40.5 52.5V46H34C30.412 46 27.5 48.912 27.5 52.5C27.5 56.088 30.412 59 34 59Z" fill="#0ACF83"/>
<path d="M27.5 39.5C27.5 35.912 30.412 33 34 33H40.5V46H34C30.412 46 27.5 43.088 27.5 39.5Z" fill="#A259FF"/>
<path d="M27.5 26.5C27.5 22.912 30.412 20 34 20H40.5V33H34C30.412 33 27.5 30.088 27.5 26.5Z" fill="#F24E1E"/>
<path d="M40.5 20H47C50.588 20 53.5 22.912 53.5 26.5C53.5 30.088 50.588 33 47 33H40.5V20Z" fill="#FF7262"/>
<path d="M53.5 39.5C53.5 43.088 50.588 46 47 46C43.412 46 40.5 43.088 40.5 39.5C40.5 35.912 43.412 33 47 33C50.588 33 53.5 35.912 53.5 39.5Z" fill="#1ABCFE"/>
</g>
<defs>
<clipPath id="clip0_238_146">
<rect width="26" height="39" fill="white" transform="translate(27.5 20)"/>
</clipPath>
</defs>
</svg>
