<svg width="81" height="80" viewBox="0 0 81 80" fill="none" xmlns="http://www.w3.org/2000/svg">
<path fill-rule="evenodd" clip-rule="evenodd" d="M68.2659 20.36L43.6249 6.13496C42.6748 5.58641 41.597 5.29762 40.4999 5.29762C39.4028 5.29762 38.325 5.58641 37.3749 6.13496L12.7339 20.361C11.7837 20.9095 10.9947 21.6986 10.4461 22.6488C9.89759 23.599 9.60883 24.6768 9.60889 25.774V54.227C9.609 55.324 9.89785 56.4016 10.4464 57.3516C10.9949 58.3016 11.7839 59.0905 12.7339 59.639L37.3739 73.866C38.324 74.4145 39.4018 74.7033 40.4989 74.7033C41.596 74.7033 42.6738 74.4145 43.6239 73.866L68.2659 59.639C69.2161 59.0904 70.0051 58.3013 70.5536 57.3512C71.1022 56.401 71.3909 55.3231 71.3909 54.226V25.774C71.3909 24.6768 71.1022 23.599 70.5536 22.6488C70.0051 21.6986 69.2161 20.9095 68.2659 20.361V20.36ZM45.4999 2.88796C43.9797 2.01028 42.2553 1.54822 40.4999 1.54822C38.7445 1.54822 37.0201 2.01028 35.4999 2.88796L10.8589 17.113C9.33873 17.9906 8.07638 19.253 7.1987 20.7731C6.32102 22.2933 5.85893 24.0176 5.85889 25.773V54.226C5.85893 55.9813 6.32102 57.7057 7.1987 59.2258C8.07638 60.746 9.33873 62.0083 10.8589 62.886L35.4989 77.113C37.0191 77.9906 38.7435 78.4527 40.4989 78.4527C42.2543 78.4527 43.9787 77.9906 45.4989 77.113L70.1409 62.887C71.661 62.0093 72.9234 60.747 73.8011 59.2268C74.6788 57.7067 75.1408 55.9823 75.1409 54.227V25.774C75.1408 24.0186 74.6788 22.2943 73.8011 20.7741C72.9234 19.254 71.661 17.9916 70.1409 17.114L45.4999 2.88596V2.88796Z" fill="#F05032"/>
<g clip-path="url(#clip0_238_130)">
<path d="M58.7812 38.306L42.1894 21.7158C41.2331 20.7611 39.6846 20.7611 38.7251 21.7158L35.2877 25.1596L39.6577 29.5296C40.6789 29.1892 41.8411 29.4187 42.6486 30.2278C43.4656 31.0432 43.6904 32.2197 43.3421 33.2362L47.5506 37.4478C48.5718 37.0947 49.7467 37.3243 50.5589 38.1366C51.7005 39.2766 51.7005 41.1196 50.5589 42.2596C49.4205 43.398 47.5807 43.398 46.4422 42.2596C45.5888 41.403 45.3751 40.1427 45.8026 39.0992L41.8617 35.1789V45.5101C42.1403 45.6463 42.4032 45.8316 42.6343 46.0611C43.7632 47.2027 43.7632 49.0426 42.6343 50.1778C41.4959 51.3194 39.6434 51.3194 38.5034 50.1778C37.365 49.0394 37.365 47.2027 38.5034 46.0643C38.7916 45.7793 39.1162 45.564 39.4613 45.4215V34.9889C39.1177 34.8448 38.79 34.6374 38.5113 34.354C37.6484 33.4911 37.441 32.2292 37.8843 31.1731L33.5903 26.8585L22.2125 38.2284C21.2625 39.1863 21.2625 40.7364 22.2125 41.6943L38.8058 58.2829C39.7622 59.2392 41.3107 59.2392 42.267 58.2829L58.7812 41.7687C59.7391 40.814 59.7391 39.2639 58.7812 38.306Z" fill="#F05032"/>
</g>
<defs>
<clipPath id="clip0_238_130">
<rect width="38" height="38" fill="white" transform="translate(21.5 21)"/>
</clipPath>
</defs>
</svg>
