<svg width="81" height="80" viewBox="0 0 81 80" fill="none" xmlns="http://www.w3.org/2000/svg">
<path fill-rule="evenodd" clip-rule="evenodd" d="M68.2659 20.36L43.6249 6.13496C42.6748 5.58641 41.597 5.29762 40.4999 5.29762C39.4028 5.29762 38.325 5.58641 37.3749 6.13496L12.7339 20.361C11.7837 20.9095 10.9947 21.6986 10.4461 22.6488C9.89759 23.599 9.60883 24.6768 9.60889 25.774V54.227C9.609 55.324 9.89785 56.4016 10.4464 57.3516C10.9949 58.3016 11.7839 59.0905 12.7339 59.639L37.3739 73.866C38.324 74.4145 39.4018 74.7033 40.4989 74.7033C41.596 74.7033 42.6738 74.4145 43.6239 73.866L68.2659 59.639C69.2161 59.0904 70.0051 58.3013 70.5536 57.3512C71.1022 56.401 71.3909 55.3231 71.3909 54.226V25.774C71.3909 24.6768 71.1022 23.599 70.5536 22.6488C70.0051 21.6986 69.2161 20.9095 68.2659 20.361V20.36ZM45.4999 2.88796C43.9797 2.01028 42.2553 1.54822 40.4999 1.54822C38.7445 1.54822 37.0201 2.01028 35.4999 2.88796L10.8589 17.113C9.33873 17.9906 8.07638 19.253 7.1987 20.7731C6.32102 22.2933 5.85893 24.0176 5.85889 25.773V54.226C5.85893 55.9813 6.32102 57.7057 7.1987 59.2258C8.07638 60.746 9.33873 62.0083 10.8589 62.886L35.4989 77.113C37.0191 77.9906 38.7435 78.4527 40.4989 78.4527C42.2543 78.4527 43.9787 77.9906 45.4989 77.113L70.1409 62.887C71.661 62.0093 72.9234 60.747 73.8011 59.2268C74.6788 57.7067 75.1408 55.9823 75.1409 54.227V25.774C75.1408 24.0186 74.6788 22.2943 73.8011 20.7741C72.9234 19.254 71.661 17.9916 70.1409 17.114L45.4999 2.88596V2.88796Z" fill="#EEEEEE"/>
<g clip-path="url(#clip0_238_138)">
<path d="M40.5 21.4702C30.0025 21.4702 21.5 29.9775 21.5 40.4702C21.5 48.8666 26.9435 55.9869 34.4913 58.4965C35.4412 58.6754 35.7896 58.088 35.7896 57.5829C35.7896 57.1316 35.7738 55.9362 35.7658 54.3529C30.4807 55.4992 29.366 51.8037 29.366 51.8037C28.5015 49.6108 27.2523 49.025 27.2523 49.025C25.5312 47.847 27.3853 47.8707 27.3853 47.8707C29.2932 48.0037 30.2954 49.8277 30.2954 49.8277C31.9896 52.7331 34.743 51.894 35.8292 51.4079C36.0002 50.1792 36.4894 49.3416 37.0325 48.8666C32.8129 48.3916 28.378 46.7576 28.378 39.4775C28.378 37.4033 29.1143 35.7091 30.3334 34.3791C30.1197 33.8994 29.4784 31.9677 30.4997 29.3505C30.4997 29.3505 32.0909 28.8406 35.7247 31.298C37.2447 30.8752 38.8597 30.6662 40.4747 30.6567C42.0897 30.6662 43.7047 30.8752 45.2247 31.298C48.8347 28.8406 50.4259 29.3505 50.4259 29.3505C51.4472 31.9677 50.8059 33.8994 50.6159 34.3791C51.8272 35.7091 52.5634 37.4033 52.5634 39.4775C52.5634 46.7766 48.1222 48.3837 43.8947 48.8508C44.5597 49.4208 45.1772 50.5861 45.1772 52.3658C45.1772 54.9086 45.1534 56.9511 45.1534 57.5686C45.1534 58.0674 45.4859 58.6611 46.4597 58.4711C54.0613 55.979 59.5 48.854 59.5 40.4702C59.5 29.9775 50.9928 21.4702 40.5 21.4702Z" fill="#EEEEEE"/>
</g>
<defs>
<clipPath id="clip0_238_138">
<rect width="38" height="38" fill="white" transform="translate(21.5 21)"/>
</clipPath>
</defs>
</svg>
