<svg width="80" height="80" viewBox="0 0 80 80" fill="none" xmlns="http://www.w3.org/2000/svg">
<path fill-rule="evenodd" clip-rule="evenodd" d="M67.7659 20.36L43.1249 6.13496C42.1748 5.58641 41.097 5.29762 39.9999 5.29762C38.9028 5.29762 37.825 5.58641 36.8749 6.13496L12.2339 20.361C11.2837 20.9095 10.4947 21.6986 9.94614 22.6488C9.39759 23.599 9.10883 24.6768 9.10889 25.774V54.227C9.109 55.324 9.39785 56.4016 9.94639 57.3516C10.4949 58.3016 11.2839 59.0905 12.2339 59.639L36.8739 73.866C37.824 74.4145 38.9018 74.7033 39.9989 74.7033C41.096 74.7033 42.1738 74.4145 43.1239 73.866L67.7659 59.639C68.7161 59.0904 69.5051 58.3013 70.0536 57.3512C70.6022 56.401 70.8909 55.3231 70.8909 54.226V25.774C70.8909 24.6768 70.6022 23.599 70.0536 22.6488C69.5051 21.6986 68.7161 20.9095 67.7659 20.361V20.36ZM44.9999 2.88796C43.4797 2.01028 41.7553 1.54822 39.9999 1.54822C38.2445 1.54822 36.5201 2.01028 34.9999 2.88796L10.3589 17.113C8.83873 17.9906 7.57638 19.253 6.6987 20.7731C5.82102 22.2933 5.35893 24.0176 5.35889 25.773V54.226C5.35893 55.9813 5.82102 57.7057 6.6987 59.2258C7.57638 60.746 8.83873 62.0083 10.3589 62.886L34.9989 77.113C36.5191 77.9906 38.2435 78.4527 39.9989 78.4527C41.7543 78.4527 43.4787 77.9906 44.9989 77.113L69.6409 62.887C71.161 62.0093 72.4234 60.747 73.3011 59.2268C74.1788 57.7067 74.6408 55.9823 74.6409 54.227V25.774C74.6408 24.0186 74.1788 22.2943 73.3011 20.7741C72.4234 19.254 71.161 17.9916 69.6409 17.114L44.9999 2.88596V2.88796Z" fill="#F7DF1E"/>
<g clip-path="url(#clip0_238_64)">
<path d="M21 21H59V59H21V21ZM55.8872 49.937C55.6101 48.2032 54.4812 46.7466 51.1324 45.3881C49.9671 44.8418 48.6719 44.4618 48.2872 43.5831C48.1431 43.0606 48.1209 42.7756 48.2143 42.4668C48.4518 41.444 49.6631 41.1368 50.6131 41.4218C51.2306 41.6118 51.8006 42.0868 52.1584 42.8468C53.7956 41.7765 53.7956 41.7765 54.9372 41.0656C54.5097 40.4006 54.2975 40.114 54.0093 39.8306C53.0118 38.7143 51.6834 38.1443 49.5222 38.1934L48.4059 38.3343C47.3356 38.5956 46.3159 39.1656 45.6984 39.9256C43.8934 41.9697 44.4143 45.5322 46.5993 47.0047C48.7606 48.6197 51.9209 48.9743 52.3247 50.4959C52.7047 52.3484 50.9472 52.9422 49.2118 52.7284C47.9278 52.4434 47.2168 51.8006 46.4331 50.6131L43.5356 52.2772C43.8681 53.0372 44.2481 53.3681 44.8181 54.0331C47.5731 56.8134 54.4606 56.6709 55.6972 52.4434C55.7431 52.3009 56.0772 51.3272 55.8143 49.8309L55.8872 49.937ZM41.6641 38.4657H38.1048C38.1048 41.5343 38.0905 44.5838 38.0905 47.657C38.0905 49.6077 38.1903 51.3984 37.872 51.9494C37.3495 53.0403 36.0037 52.901 35.3925 52.7094C34.7655 52.3991 34.4473 51.9716 34.0783 51.3557C33.9786 51.1894 33.9042 51.0453 33.8773 51.0453L30.9877 52.8266C31.4706 53.8241 32.1752 54.6823 33.084 55.2285C34.4377 56.036 36.257 56.2973 38.1618 55.8698C39.4015 55.5119 40.4702 54.7757 41.0292 53.6357C41.8367 52.1632 41.6657 50.3582 41.6578 48.3378C41.6768 45.0857 41.6578 41.8319 41.6578 38.5544L41.6641 38.4657Z" fill="#F7DF1E"/>
</g>
<defs>
<clipPath id="clip0_238_64">
<rect width="38" height="38" fill="white" transform="translate(21 21)"/>
</clipPath>
</defs>
</svg>
