<svg width="80" height="80" viewBox="0 0 80 80" fill="none" xmlns="http://www.w3.org/2000/svg">
<path fill-rule="evenodd" clip-rule="evenodd" d="M67.7659 20.36L43.1249 6.13496C42.1748 5.58641 41.097 5.29762 39.9999 5.29762C38.9028 5.29762 37.825 5.58641 36.8749 6.13496L12.2339 20.361C11.2837 20.9095 10.4947 21.6986 9.94614 22.6488C9.39759 23.599 9.10883 24.6768 9.10889 25.774V54.227C9.109 55.324 9.39785 56.4016 9.94639 57.3516C10.4949 58.3016 11.2839 59.0905 12.2339 59.639L36.8739 73.866C37.824 74.4145 38.9018 74.7033 39.9989 74.7033C41.096 74.7033 42.1738 74.4145 43.1239 73.866L67.7659 59.639C68.7161 59.0904 69.5051 58.3013 70.0536 57.3512C70.6022 56.401 70.8909 55.3231 70.8909 54.226V25.774C70.8909 24.6768 70.6022 23.599 70.0536 22.6488C69.5051 21.6986 68.7161 20.9095 67.7659 20.361V20.36ZM44.9999 2.88796C43.4797 2.01028 41.7553 1.54822 39.9999 1.54822C38.2445 1.54822 36.5201 2.01028 34.9999 2.88796L10.3589 17.113C8.83873 17.9906 7.57638 19.253 6.6987 20.7731C5.82102 22.2933 5.35893 24.0176 5.35889 25.773V54.226C5.35893 55.9813 5.82102 57.7057 6.6987 59.2258C7.57638 60.746 8.83873 62.0083 10.3589 62.886L34.9989 77.113C36.5191 77.9906 38.2435 78.4527 39.9989 78.4527C41.7543 78.4527 43.4787 77.9906 44.9989 77.113L69.6409 62.887C71.161 62.0093 72.4234 60.747 73.3011 59.2268C74.1788 57.7067 74.6408 55.9823 74.6409 54.227V25.774C74.6408 24.0186 74.1788 22.2943 73.3011 20.7741C72.4234 19.254 71.161 17.9916 69.6409 17.114L44.9999 2.88596V2.88796Z" fill="#5C2D91"/>
<g clip-path="url(#clip0_238_105)">
<path d="M40 59C50.4934 59 59 50.4934 59 40C59 29.5066 50.4934 21 40 21C29.5066 21 21 29.5066 21 40C21 50.4934 29.5066 59 40 59Z" fill="#5C2D91"/>
<path opacity="0.1" d="M26.8307 26.3438C24.8992 28.0649 23.3396 30.1624 22.2474 32.5077C21.1552 34.8529 20.5534 37.3965 20.479 39.9825C20.4047 42.5686 20.8592 45.1425 21.8147 47.5467C22.7703 49.9509 24.2068 52.1345 26.0362 53.9639C27.8655 55.7933 30.0492 57.2297 32.4534 58.1853C34.8575 59.1409 37.4315 59.5954 40.0175 59.521C42.6036 59.4466 45.1472 58.8449 47.4924 57.7527C49.8377 56.6605 51.9351 55.1009 53.6563 53.1694L26.8307 26.3438Z" fill="white"/>
<path d="M25.3937 43.1172C25.2828 43.1189 25.1728 43.0977 25.0706 43.0547C24.9684 43.0118 24.8763 42.9482 24.7999 42.8678C24.7215 42.7903 24.6595 42.6978 24.6176 42.5957C24.5758 42.4937 24.555 42.3843 24.5565 42.274C24.5557 42.1639 24.5768 42.0547 24.6186 41.9527C24.6604 41.8508 24.722 41.7582 24.7999 41.6803C24.8755 41.5986 24.9674 41.5336 25.0697 41.4896C25.172 41.4457 25.2823 41.4236 25.3937 41.425C25.5048 41.4247 25.6149 41.4472 25.717 41.4911C25.8191 41.5351 25.9111 41.5994 25.9874 41.6803C26.0666 41.7575 26.1296 41.8498 26.1724 41.9518C26.2152 42.0538 26.2371 42.1634 26.2368 42.274C26.2378 42.3848 26.2162 42.4946 26.1734 42.5967C26.1305 42.6987 26.0672 42.791 25.9874 42.8678C25.9104 42.9473 25.8181 43.0104 25.7161 43.0533C25.614 43.0961 25.5043 43.1179 25.3937 43.1172Z" fill="white"/>
<path d="M37.1916 42.9687H35.636L30.0725 34.3356C29.9339 34.1229 29.8185 33.896 29.7282 33.6587H29.6807C29.7335 34.1516 29.7534 34.6475 29.74 35.1431V42.9687H28.4753V32.1447H30.12L35.535 40.6234C35.7607 40.9757 35.9071 41.2172 35.9744 41.3478H36.0041C35.9414 40.8198 35.9156 40.2881 35.9269 39.7565V32.1447H37.1916V42.9687Z" fill="white"/>
<path d="M45.7534 42.9687H40V32.1447H45.4863V33.2906H41.2944V36.8887H45.2012V38.0287H41.2944V41.7812H45.7594L45.7534 42.9687Z" fill="white"/>
<path d="M54.2501 33.2906H51.1032V42.9687H49.8385V33.2906H46.7273V32.1447H54.2501V33.2906Z" fill="white"/>
<path d="M36.5087 50.3312C36.08 50.5388 35.6072 50.6387 35.1312 50.6221C34.8149 50.6364 34.4992 50.5828 34.2053 50.4651C33.9114 50.3473 33.6461 50.168 33.4271 49.9393C32.9909 49.451 32.761 48.8125 32.7859 48.1581C32.7699 47.8038 32.8253 47.4499 32.9487 47.1174C33.0721 46.7849 33.2611 46.4805 33.5043 46.2225C33.7414 45.9796 34.0264 45.7887 34.3413 45.662C34.6561 45.5352 34.9939 45.4754 35.3331 45.4862C35.739 45.4723 36.1434 45.5431 36.5206 45.694V46.2878C36.1575 46.0868 35.748 45.9844 35.3331 45.9909C35.0715 45.9835 34.8113 46.0328 34.5705 46.1352C34.3297 46.2377 34.1139 46.391 33.9378 46.5846C33.5675 47.0065 33.3758 47.5559 33.4034 48.1165C33.3757 48.6476 33.5544 49.1688 33.9021 49.5712C34.0689 49.7506 34.2726 49.8917 34.4991 49.985C34.7256 50.0783 34.9696 50.1214 35.2143 50.1115C35.6702 50.1234 36.1204 50.0083 36.5146 49.779L36.5087 50.3312Z" fill="#F2F2F2"/>
<path d="M38.9372 50.6221C38.7008 50.6298 38.4656 50.5866 38.2474 50.4954C38.0292 50.4042 37.8332 50.2672 37.6725 50.0937C37.3478 49.7314 37.1793 49.2556 37.2035 48.7696C37.1886 48.5151 37.2246 48.2601 37.3092 48.0195C37.3938 47.779 37.5253 47.5576 37.6963 47.3684C37.8707 47.1982 38.0782 47.0655 38.3059 46.9787C38.5337 46.8919 38.7768 46.8528 39.0203 46.8637C39.2505 46.8515 39.4806 46.8892 39.6948 46.9742C39.909 47.0593 40.1022 47.1897 40.2613 47.3565C40.5768 47.7368 40.736 48.2229 40.7066 48.7162C40.7315 49.2169 40.5588 49.7073 40.2256 50.0818C40.062 50.2587 39.8623 50.3985 39.64 50.4917C39.4178 50.5849 39.1781 50.6294 38.9372 50.6221ZM38.9788 47.3743C38.8154 47.3675 38.6527 47.3975 38.5026 47.4623C38.3525 47.5271 38.2189 47.6249 38.1119 47.7484C37.8834 48.0426 37.7695 48.4097 37.7913 48.7815C37.7705 49.1423 37.8848 49.4979 38.1119 49.779C38.22 49.9008 38.3539 49.997 38.5039 50.0607C38.6538 50.1244 38.816 50.1539 38.9788 50.1471C39.1381 50.1566 39.2975 50.1293 39.4446 50.0676C39.5918 50.0058 39.7229 49.9112 39.8278 49.7909C40.0437 49.4959 40.1488 49.1344 40.1247 48.7696C40.1482 48.4031 40.0432 48.0399 39.8278 47.7425C39.7244 47.6197 39.5939 47.5225 39.4465 47.4587C39.2992 47.3948 39.1391 47.3659 38.9788 47.3743Z" fill="#F2F2F2"/>
<path d="M43.4794 47.5525C43.3511 47.4685 43.1989 47.4289 43.0459 47.4397C42.9263 47.4441 42.8096 47.4777 42.7061 47.5378C42.6025 47.5978 42.5153 47.6824 42.4522 47.7841C42.2755 48.0639 42.1904 48.3918 42.2087 48.7222V50.5391H41.615V46.9766H42.2087V47.7188C42.274 47.4891 42.4038 47.283 42.5828 47.125C42.7376 46.9906 42.9359 46.9168 43.1409 46.9172C43.2557 46.912 43.3704 46.9281 43.4794 46.9647V47.5525Z" fill="#F2F2F2"/>
<path d="M46.9589 48.9062H44.4473C44.4305 49.2381 44.5385 49.5644 44.7501 49.8206C44.8602 49.9304 44.9922 50.0157 45.1375 50.0709C45.2827 50.1262 45.4381 50.1501 45.5932 50.1412C45.9957 50.1372 46.385 49.997 46.6976 49.7434V50.2778C46.3305 50.5198 45.8958 50.6383 45.4567 50.6162C45.2351 50.6274 45.0138 50.5896 44.8086 50.5054C44.6033 50.4213 44.4191 50.2929 44.2692 50.1294C43.9601 49.7438 43.8056 49.257 43.8357 48.7637C43.8144 48.2693 43.9821 47.7852 44.3048 47.41C44.4517 47.2403 44.6344 47.1055 44.8398 47.0151C45.0451 46.9247 45.268 46.8811 45.4923 46.8875C45.6948 46.8761 45.8973 46.9108 46.0844 46.989C46.2716 47.0672 46.4386 47.1867 46.5729 47.3387C46.8463 47.6992 46.9812 48.1459 46.9529 48.5975L46.9589 48.9062ZM46.3651 48.4253C46.3772 48.1502 46.2932 47.8794 46.1276 47.6594C46.0464 47.5676 45.9454 47.4953 45.8323 47.448C45.7192 47.4007 45.5969 47.3796 45.4745 47.3862C45.3467 47.3847 45.22 47.4097 45.1025 47.4598C44.9849 47.5099 44.8791 47.5839 44.7917 47.6772C44.5963 47.8839 44.4733 48.1485 44.4414 48.4312L46.3651 48.4253Z" fill="#F2F2F2"/>
</g>
<defs>
<clipPath id="clip0_238_105">
<rect width="38" height="38" fill="white" transform="translate(21 21)"/>
</clipPath>
</defs>
</svg>
