<svg width="80" height="80" viewBox="0 0 80 80" fill="none" xmlns="http://www.w3.org/2000/svg">
<path fill-rule="evenodd" clip-rule="evenodd" d="M67.7659 20.36L43.1249 6.13496C42.1748 5.58641 41.097 5.29762 39.9999 5.29762C38.9028 5.29762 37.825 5.58641 36.8749 6.13496L12.2339 20.361C11.2837 20.9095 10.4947 21.6986 9.94614 22.6488C9.39759 23.599 9.10883 24.6768 9.10889 25.774V54.227C9.109 55.324 9.39785 56.4016 9.94639 57.3516C10.4949 58.3016 11.2839 59.0905 12.2339 59.639L36.8739 73.866C37.824 74.4145 38.9018 74.7033 39.9989 74.7033C41.096 74.7033 42.1738 74.4145 43.1239 73.866L67.7659 59.639C68.7161 59.0904 69.5051 58.3013 70.0536 57.3512C70.6022 56.401 70.8909 55.3231 70.8909 54.226V25.774C70.8909 24.6768 70.6022 23.599 70.0536 22.6488C69.5051 21.6986 68.7161 20.9095 67.7659 20.361V20.36ZM44.9999 2.88796C43.4797 2.01028 41.7553 1.54822 39.9999 1.54822C38.2445 1.54822 36.5201 2.01028 34.9999 2.88796L10.3589 17.113C8.83873 17.9906 7.57638 19.253 6.6987 20.7731C5.82102 22.2933 5.35893 24.0176 5.35889 25.773V54.226C5.35893 55.9813 5.82102 57.7057 6.6987 59.2258C7.57638 60.746 8.83873 62.0083 10.3589 62.886L34.9989 77.113C36.5191 77.9906 38.2435 78.4527 39.9989 78.4527C41.7543 78.4527 43.4787 77.9906 44.9989 77.113L69.6409 62.887C71.161 62.0093 72.4234 60.747 73.3011 59.2268C74.1788 57.7067 74.6408 55.9823 74.6409 54.227V25.774C74.6408 24.0186 74.1788 22.2943 73.3011 20.7741C72.4234 19.254 71.161 17.9916 69.6409 17.114L44.9999 2.88596V2.88796Z" fill="#61DAFB"/>
<path d="M43.5308 40.0063C43.5308 40.945 43.1581 41.8452 42.4945 42.5091C41.8309 43.173 40.9308 43.5462 39.9921 43.5466C39.0531 43.5466 38.1526 43.1736 37.4887 42.5097C36.8247 41.8457 36.4517 40.9452 36.4517 40.0063C36.4517 39.0676 36.8245 38.1673 37.4881 37.5034C38.1517 36.8395 39.0518 36.4664 39.9905 36.4659C40.9295 36.4659 41.83 36.8389 42.4939 37.5029C43.1578 38.1668 43.5308 39.0673 43.5308 40.0063ZM47.7235 23.0804C45.5923 23.0804 42.8041 24.6004 39.9842 27.2319C37.1658 24.6147 34.376 23.1121 32.2464 23.1121C31.5973 23.1121 31.0067 23.2594 30.4953 23.5523C28.3182 24.8079 27.8305 28.7203 28.9547 33.6302C24.135 35.1185 21 37.4983 21 40.0063C21 42.5238 24.1508 44.9099 28.9848 46.3871C27.8701 51.316 28.3673 55.2348 30.5491 56.4888C31.0558 56.7849 31.6416 56.9242 32.2939 56.9242C34.4235 56.9242 37.2133 55.4042 40.0333 52.7695C42.8516 55.3884 45.6414 56.8909 47.771 56.8909C48.4202 56.8909 49.0107 56.7484 49.5222 56.4555C51.6977 55.2015 52.1869 51.2891 51.0627 46.3776C55.865 44.9019 59 42.5174 59 40.0063C59 37.4888 55.8492 35.1027 51.0153 33.6223C52.1299 28.6981 51.6328 24.7762 49.4509 23.5206C48.9474 23.2293 48.3616 23.082 47.7219 23.0804H47.7235ZM47.7156 24.8063V24.8158C48.0718 24.8158 48.3584 24.8854 48.5991 25.0169C49.6536 25.6217 50.1112 27.9223 49.7549 30.8815C49.6694 31.6099 49.5301 32.3778 49.3591 33.1615C47.8391 32.7879 46.1829 32.5013 44.4397 32.316C43.3947 30.8831 42.3101 29.5816 41.2176 28.4416C43.7383 26.0983 46.1053 24.8126 47.7172 24.8079L47.7156 24.8063ZM32.2464 24.8379C33.8488 24.8379 36.2269 26.1173 38.7539 28.4479C37.6678 29.5879 36.5848 30.8815 35.5556 32.3144C33.8028 32.4997 32.1451 32.7863 30.6267 33.1663C30.4493 32.3904 30.3179 31.6399 30.2245 30.9179C29.8603 27.9603 30.31 25.6613 31.355 25.0485C31.6558 24.906 31.9883 24.8474 32.2464 24.8395V24.8379ZM39.9762 29.6671C40.6967 30.4081 41.4171 31.2378 42.1296 32.1434C41.4329 32.1118 40.7204 32.0896 40 32.0896C39.2717 32.0896 38.5513 32.1054 37.8467 32.1434C38.5433 31.2378 39.2638 30.4081 39.9762 29.6655V29.6671ZM40 33.8249C41.1717 33.8249 42.3386 33.8788 43.4865 33.9722C44.1293 34.8937 44.7563 35.8769 45.3596 36.9172C45.9486 37.9305 46.4838 38.9597 46.9714 39.9984C46.4838 41.0354 45.9486 42.0725 45.3675 43.0859C44.7658 44.1309 44.1436 45.1252 43.4992 46.0467C42.3465 46.1464 41.178 46.2019 40 46.2019C38.8283 46.2019 37.6614 46.1464 36.5135 46.0546C35.8707 45.1331 35.2437 44.1483 34.6404 43.1096C34.0514 42.0963 33.5163 41.0671 33.0286 40.0284C33.5083 38.9882 34.0514 37.9495 34.6325 36.9346C35.2342 35.8896 35.8564 34.8984 36.5008 33.9769C37.6535 33.8756 38.822 33.8218 40 33.8218V33.8249ZM34.2446 34.2271C33.8646 34.824 33.4846 35.4352 33.1299 36.0638C32.7737 36.6813 32.4412 37.3019 32.1245 37.9226C31.7049 36.8839 31.3487 35.8484 31.0542 34.8399C32.0675 34.6024 33.1362 34.3918 34.2446 34.2287V34.2271ZM45.7396 34.2271C46.84 34.3902 47.9008 34.5913 48.9158 34.8399C48.6308 35.8405 48.2745 36.8697 47.8708 37.9004C47.5541 37.2829 47.2216 36.6607 46.8574 36.0416C46.5012 35.4209 46.1212 34.8161 45.7412 34.2271H45.7396ZM50.5893 35.2959C51.3557 35.5334 52.084 35.7978 52.7664 36.0844C55.5088 37.256 57.2821 38.7887 57.2821 40.0047C57.2742 41.2207 55.5008 42.7597 52.7585 43.9234C52.0935 44.2084 51.3652 44.4649 50.6131 44.704C50.1698 43.1872 49.5903 41.607 48.8714 39.9857C49.5839 38.3754 50.1539 36.8032 50.5893 35.2927V35.2959ZM29.3806 35.3022C29.8208 36.8222 30.4018 38.4008 31.1223 40.0205C30.4097 41.6308 29.8366 43.203 29.4028 44.7135C28.6364 44.476 27.9081 44.21 27.2336 43.9219C24.4913 42.7549 22.7179 41.2207 22.7179 40.0047C22.7179 38.7887 24.4913 37.2465 27.2336 36.0844C27.8986 35.7994 28.6269 35.5429 29.3806 35.3022ZM47.8708 42.0789C48.2903 43.1191 48.6466 44.1562 48.9411 45.1632C47.9277 45.4118 46.8574 45.6224 45.7491 45.7807C46.1291 45.1869 46.5091 44.5742 46.8653 43.9472C47.2216 43.3297 47.5541 42.6995 47.8723 42.0789H47.8708ZM32.1245 42.1105C32.4412 42.7312 32.7737 43.3503 33.1378 43.9709C33.502 44.5884 33.8741 45.1933 34.2541 45.7807C33.1537 45.6192 32.0928 45.4165 31.0779 45.1695C31.3629 44.172 31.7208 43.1397 32.1229 42.1089L32.1245 42.1105ZM49.3733 46.8399C49.5507 47.6205 49.69 48.3726 49.7755 49.093C50.1397 52.0507 49.69 54.3497 48.645 54.964C48.4122 55.1065 48.1098 55.1667 47.7536 55.1667C46.1512 55.1667 43.7731 53.8889 41.2461 51.5567C42.3323 50.4167 43.4153 49.1247 44.4444 47.6934C46.1972 47.5065 47.8549 47.2184 49.3733 46.8384V46.8399ZM30.6425 46.8558C32.1625 47.2263 33.8187 47.5129 35.5619 47.6981C36.6069 49.131 37.6915 50.4325 38.784 51.5709C36.2586 53.919 33.8883 55.2047 32.2765 55.2047C31.9282 55.1968 31.6337 55.1255 31.4009 54.9957C30.3464 54.394 29.8888 52.0919 30.2451 49.1326C30.3306 48.4043 30.4699 47.6379 30.6409 46.8558H30.6425ZM37.8625 47.8691C38.5592 47.9008 39.2717 47.9229 39.9921 47.9229C40.7204 47.9229 41.4408 47.9071 42.1454 47.8691C41.4487 48.7748 40.7283 49.6029 40.0158 50.347C39.2954 49.6029 38.575 48.7748 37.8625 47.8691Z" fill="#61DAFB"/>
</svg>
