<svg width="81" height="80" viewBox="0 0 81 80" fill="none" xmlns="http://www.w3.org/2000/svg">
<path fill-rule="evenodd" clip-rule="evenodd" d="M68.2659 20.36L43.6249 6.13496C42.6748 5.58641 41.597 5.29762 40.4999 5.29762C39.4028 5.29762 38.325 5.58641 37.3749 6.13496L12.7339 20.361C11.7837 20.9095 10.9947 21.6986 10.4461 22.6488C9.89759 23.599 9.60883 24.6768 9.60889 25.774V54.227C9.609 55.324 9.89785 56.4016 10.4464 57.3516C10.9949 58.3016 11.7839 59.0905 12.7339 59.639L37.3739 73.866C38.324 74.4145 39.4018 74.7033 40.4989 74.7033C41.596 74.7033 42.6738 74.4145 43.6239 73.866L68.2659 59.639C69.2161 59.0904 70.0051 58.3013 70.5536 57.3512C71.1022 56.401 71.3909 55.3231 71.3909 54.226V25.774C71.3909 24.6768 71.1022 23.599 70.5536 22.6488C70.0051 21.6986 69.2161 20.9095 68.2659 20.361V20.36ZM45.4999 2.88796C43.9797 2.01028 42.2553 1.54822 40.4999 1.54822C38.7445 1.54822 37.0201 2.01028 35.4999 2.88796L10.8589 17.113C9.33873 17.9906 8.07638 19.253 7.1987 20.7731C6.32102 22.2933 5.85893 24.0176 5.85889 25.773V54.226C5.85893 55.9813 6.32102 57.7057 7.1987 59.2258C8.07638 60.746 9.33873 62.0083 10.8589 62.886L35.4989 77.113C37.0191 77.9906 38.7435 78.4527 40.4989 78.4527C42.2543 78.4527 43.9787 77.9906 45.4989 77.113L70.1409 62.887C71.661 62.0093 72.9234 60.747 73.8011 59.2268C74.6788 57.7067 75.1408 55.9823 75.1409 54.227V25.774C75.1408 24.0186 74.6788 22.2943 73.8011 20.7741C72.9234 19.254 71.661 17.9916 70.1409 17.114L45.4999 2.88596V2.88796Z" fill="#CC2927"/>
<g clip-path="url(#clip0_238_122)">
<path d="M28.9796 24.9664C28.9796 24.9664 28.8529 25.1675 28.9733 25.4651C29.0461 25.6488 29.2678 25.8705 29.5116 26.1048C29.5116 26.1048 32.0687 28.6001 32.3822 28.9611C33.7993 30.5967 34.4152 32.207 34.4722 34.4284C34.507 35.8534 34.2331 37.1074 33.5649 38.5656C32.3679 41.1765 29.8441 44.0566 25.9491 47.2581L26.5191 47.0681C26.888 46.7942 27.3868 46.4997 28.5648 45.8553C31.277 44.3733 34.3218 43.0085 38.0632 41.6025C43.4449 39.5805 52.2974 37.2071 57.3355 36.436L57.8596 36.3553L57.7804 36.2286C57.3181 35.513 57.0046 35.0712 56.6246 34.6025C55.521 33.2361 54.1831 32.1215 52.5444 31.2047C50.2929 29.9428 47.3716 28.9627 43.6777 28.228C42.5246 28.0112 41.3681 27.8133 40.2086 27.6343C38.1344 27.3162 36.0634 26.9784 33.9956 26.621C33.3227 26.5022 32.3173 26.3344 31.6507 26.1903C31.1366 26.0811 30.6287 25.9447 30.1291 25.7818C29.7048 25.6155 29.1079 25.454 28.9796 24.9664ZM30.4616 26.4056C30.4664 26.4025 30.5614 26.4325 30.6785 26.4721C30.8939 26.545 31.1789 26.6305 31.5114 26.7239C31.7425 26.7872 31.9974 26.8569 32.2698 26.925C32.6149 27.0136 32.9015 27.0896 32.9047 27.0944C32.9427 27.1371 33.5238 28.9912 33.7217 29.7021C33.7977 29.9745 33.8547 30.2009 33.8499 30.2056C33.7948 30.137 33.747 30.0627 33.7074 29.984C33.0361 28.8028 31.9705 27.601 30.7403 26.6336C30.6446 26.5611 30.5517 26.485 30.4616 26.4056ZM33.2958 27.1878C33.3243 27.1862 33.4525 27.2068 33.6045 27.2416C34.5846 27.457 36.3358 27.7958 37.4599 27.9858C37.6484 28.0175 37.8019 28.0491 37.8019 28.0602C37.7561 28.1014 37.7036 28.1346 37.6468 28.1584C37.4584 28.2534 36.6936 28.711 36.4387 28.882C35.8006 29.3095 35.2259 29.767 34.8079 30.1819C34.7065 30.2858 34.6025 30.3872 34.4959 30.4859C34.4912 30.4859 34.4611 30.3877 34.431 30.269C34.1622 29.3046 33.818 28.3628 33.4019 27.4522C33.3601 27.3671 33.3225 27.2799 33.2894 27.191C33.2894 27.1894 33.2894 27.1878 33.2958 27.1878ZM38.2785 28.1346C38.3102 28.1457 38.3735 28.3405 38.4828 28.7743C38.7351 29.7973 38.817 30.8549 38.725 31.9045L38.706 31.9647L38.4099 31.8697C37.7956 31.6734 36.7949 31.3789 35.9368 31.1414C35.6374 31.0648 35.3416 30.975 35.0501 30.8722C35.0501 30.8374 35.761 30.1265 36.0666 29.8557C36.6509 29.3395 38.2231 28.1172 38.2785 28.1346ZM38.6744 28.1916C38.6918 28.1758 41.0557 28.5843 42.1292 28.7901C42.9304 28.9437 44.0878 29.186 44.1574 29.216C44.1923 29.2287 44.0719 29.2952 43.6872 29.4694C42.1672 30.1534 41.0399 30.7677 39.9189 31.5166C39.6244 31.713 39.3789 31.8745 39.3742 31.8745C39.3679 31.8745 39.3647 31.7098 39.3647 31.5103C39.3647 30.4178 39.1446 29.3142 38.7456 28.3816C38.716 28.3207 38.6921 28.257 38.6744 28.1916ZM44.786 29.4013C44.8034 29.4187 44.7259 29.8858 44.6594 30.1613C44.4504 31.0163 43.8962 32.2893 43.2122 33.4847C43.1404 33.6196 43.06 33.7496 42.9715 33.8742C42.8511 33.8232 42.7351 33.7623 42.6248 33.6921C41.9566 33.301 41.1998 32.9321 40.3685 32.5885C40.2197 32.5301 40.0729 32.4667 39.9284 32.3985C39.8904 32.3637 41.7381 31.1398 42.7182 30.5524C43.5019 30.0821 44.7639 29.3791 44.786 29.4013ZM45.223 29.4694C45.2753 29.4694 46.3234 29.7544 46.8649 29.9175C48.2155 30.3212 49.7735 30.8896 50.7837 31.3488L51.2033 31.5388L50.9072 31.6069C48.4356 32.1769 46.3155 32.8308 44.2762 33.6589C44.1068 33.7285 43.9595 33.7855 43.9484 33.7855C43.9772 33.6839 44.017 33.5856 44.0672 33.4926C44.6815 32.1895 45.0774 30.8215 45.1803 29.661C45.1898 29.5549 45.2088 29.4694 45.223 29.4694ZM34.8047 31.8634C34.8205 31.8475 35.6185 32.0344 36.0539 32.1563C36.7079 32.34 38.0996 32.8055 38.0996 32.8419C38.0996 32.8482 37.946 32.9828 37.7592 33.1395C37.0071 33.7681 36.2804 34.4268 35.4111 35.266C35.2546 35.4228 35.0919 35.5733 34.9234 35.7172C34.9124 35.7172 34.9076 35.6808 34.9139 35.638C35.0454 34.6706 35.0169 33.4293 34.8348 32.1658C34.8168 32.0664 34.8062 31.9659 34.8031 31.865L34.8047 31.8634ZM51.6039 31.8792C51.6149 31.8919 51.2334 32.4888 50.9959 32.8292C50.6475 33.3264 50.1456 33.9787 48.9993 35.4211L47.4888 37.3243C47.3508 37.5033 47.2088 37.679 47.0629 37.8515C47.0581 37.8515 46.9837 37.747 46.8998 37.6204C46.2526 36.6546 45.4686 35.7879 44.5723 35.0475C44.4319 34.9298 44.2893 34.8148 44.1448 34.7023C44.102 34.6736 44.0627 34.6401 44.0276 34.6025C44.0276 34.5867 45.0045 34.1687 45.7503 33.8647C47.195 33.284 48.6624 32.7611 50.1488 32.2972C50.8486 32.0835 51.5928 31.8697 51.6039 31.8792ZM52.044 31.9948C52.1594 32.0338 52.2695 32.087 52.3718 32.1531C53.7678 32.9529 55.0592 33.923 56.2161 35.0411C56.5233 35.342 57.2722 36.1225 57.2611 36.1289L56.6864 36.1748C54.2639 36.3569 51.1669 36.8715 48.1839 37.5887C47.9812 37.6362 47.807 37.6774 47.7944 37.6774C47.7833 37.6774 48.0049 37.4557 48.2868 37.1834C50.0395 35.5003 50.8375 34.4379 51.778 32.5379C51.9174 32.256 52.0361 32.0106 52.0409 31.9964H52.044V31.9948ZM39.238 33.309C39.3188 33.3248 40.0661 33.6731 40.6298 33.955C41.1444 34.213 41.9249 34.6295 41.9645 34.6659C41.9693 34.6706 41.6954 34.8131 41.3534 34.9841C40.2719 35.5256 39.3457 36.0355 38.3799 36.626C38.1028 36.7955 37.8732 36.9332 37.8653 36.9332C37.8415 36.9332 37.8494 36.9126 38.0046 36.6308C38.5393 35.6335 38.9326 34.5667 39.1731 33.461C39.1953 33.3628 39.2206 33.3026 39.238 33.3074V33.309ZM38.4859 33.442C38.5018 33.4578 38.3086 34.1703 38.1851 34.5503C37.8506 35.55 37.4072 36.51 36.863 37.413L36.7205 37.6457L36.3991 37.3338C36.0864 37.0151 35.7251 36.7479 35.3288 36.5421C35.2307 36.4978 35.1373 36.4437 35.0501 36.3806C35.0501 36.3331 36.0318 35.4417 36.7886 34.8005C37.3317 34.3413 38.4733 33.4277 38.4859 33.442ZM43.0586 35.323L43.3389 35.505C43.9833 35.923 44.7449 36.4851 45.3259 36.968C45.6521 37.2404 46.2839 37.8072 46.4137 37.9434L46.4834 38.0178L46.0179 38.1476C43.6377 38.7968 41.2869 39.5491 38.972 40.4023C38.7076 40.4989 38.4812 40.5796 38.4654 40.5796C38.4321 40.5796 38.3989 40.6097 38.9926 40.0635C40.5126 38.6654 41.8537 37.1248 42.8559 35.627L43.0586 35.323ZM41.8569 35.6238C41.8711 35.638 41.0779 36.748 40.6076 37.375C40.0439 38.1239 39.0401 39.3779 38.3498 40.1933C38.1735 40.4083 37.9908 40.6179 37.8019 40.8219C37.7861 40.8266 37.7782 40.7427 37.7766 40.6113C37.7766 39.9146 37.5993 39.1705 37.2889 38.5403C37.1575 38.2743 37.1354 38.211 37.1623 38.1856C37.2699 38.0875 38.9467 37.1311 40.0028 36.5659C40.7295 36.1764 41.8442 35.6095 41.8569 35.6238ZM34.5894 37.405C35.0495 37.6255 35.4812 37.9009 35.875 38.2252C35.8877 38.2331 35.7373 38.3566 35.5425 38.4975C34.9963 38.8918 34.165 39.5172 33.6853 39.9004C33.1786 40.3041 33.1612 40.3168 33.2182 40.2281C33.5982 39.647 33.7882 39.3193 33.9877 38.8981C34.1666 38.5245 34.3424 38.0811 34.469 37.6948C34.4952 37.5927 34.5362 37.4951 34.5909 37.405H34.5894ZM36.5258 38.925C36.5527 38.9203 36.5891 38.9694 36.7459 39.2021C37.0736 39.693 37.3254 40.3453 37.3903 40.8773L37.4029 40.9929L36.616 41.2969C35.2069 41.8447 33.9069 42.3846 33.0282 42.7852C32.7828 42.8992 32.3505 43.105 32.0671 43.2475C31.7837 43.39 31.5525 43.5009 31.5525 43.4945C31.5525 43.4882 31.7299 43.3536 31.9484 43.1969C33.6694 41.946 35.1546 40.578 36.274 39.2085C36.3928 39.0628 36.502 38.9361 36.5163 38.9266C36.5192 38.925 36.5224 38.9239 36.5258 38.9235V38.925ZM35.6328 39.1467C35.6565 39.1689 34.9979 39.913 34.5545 40.3659C33.4462 41.498 32.3442 42.3846 30.9825 43.2491C30.8115 43.3584 30.6564 43.455 30.6342 43.4676C30.5978 43.4898 30.6469 43.4328 31.2454 42.7805C31.6222 42.3704 31.9104 42.03 32.2397 41.604C32.455 41.3238 32.4962 41.2842 32.8129 41.0562C33.6631 40.4419 35.6106 39.123 35.6328 39.1451V39.1467ZM37.2145 21.0001C37.0879 20.9843 35.0438 21.7205 33.7312 22.2525C31.9531 22.9761 30.5709 23.668 29.719 24.2665C29.4024 24.4882 29.0034 24.8888 28.9464 25.0424C28.9239 25.1048 28.9126 25.1708 28.9131 25.2371L29.6858 25.9655L31.5193 26.5513L35.8877 27.3335L40.8799 28.1916L40.9306 27.7641L40.8863 27.7562L40.2292 27.6517L40.0946 27.4174C39.416 26.2202 38.7941 24.9918 38.231 23.7361C37.9024 22.9815 37.6221 22.2067 37.3919 21.4165C37.2842 21.0318 37.2731 21.008 37.2145 21.0001ZM37.1179 21.2946H37.1259C37.1306 21.2994 37.1528 21.4609 37.1765 21.6509C37.2747 22.4552 37.4552 23.2342 37.737 24.0734C37.9492 24.7067 37.9524 24.6703 37.699 24.599C37.1132 24.436 34.4817 23.9847 32.5785 23.7203C32.3896 23.6962 32.2011 23.6682 32.0133 23.6364C31.9895 23.6126 33.386 22.8811 34.0051 22.5914C34.7984 22.224 36.9612 21.3247 37.1179 21.2946ZM31.5731 23.8723L31.7964 23.9483C33.0187 24.3631 36.0809 24.949 37.7734 25.0883C37.9634 25.1041 38.1249 25.1215 38.1297 25.1263C38.1344 25.131 37.9714 25.2181 37.7687 25.3195C36.9533 25.728 36.0539 26.2267 35.4317 26.6162C35.2496 26.7302 35.0834 26.822 35.0596 26.8205C34.9696 26.8078 34.8799 26.7935 34.7904 26.7777L34.5624 26.7413L33.9845 26.1792C32.9696 25.1975 32.1779 24.4375 31.8708 24.1525L31.5731 23.8723ZM31.3467 24.0528L32.1558 25.063C32.6023 25.6171 33.0488 26.1697 33.1469 26.2885C33.2467 26.4072 33.3227 26.507 33.3179 26.5101C33.2958 26.5275 32.1463 26.3043 31.5367 26.1634C31.1077 26.0722 30.6834 25.9602 30.2653 25.8277L29.9486 25.7264L29.9502 25.6488C29.9549 25.2609 30.4442 24.6877 31.2739 24.1035L31.3467 24.0528ZM38.2374 25.4287C38.2611 25.4303 38.288 25.4794 38.3593 25.6361C38.5556 26.0668 39.1668 27.2321 39.314 27.457C39.3615 27.5314 39.4407 27.5361 38.6284 27.4047C36.6809 27.0912 36.0492 26.9851 36.0492 26.9725C36.0888 26.938 36.1331 26.9093 36.1806 26.887C36.8019 26.5384 37.3887 26.1317 37.9334 25.6725L38.2104 25.4398C38.2199 25.4319 38.2294 25.4271 38.2374 25.4287ZM45.0599 38.7414L37.4473 41.224L30.8289 44.1469L28.9764 44.6377C28.5046 45.0842 28.0059 45.537 27.4754 45.9994C26.8896 46.5076 26.3418 46.9684 25.9238 47.3009C25.3769 47.7533 24.8719 48.2541 24.4149 48.7971C23.8892 49.4526 23.4775 50.1493 23.3002 50.686C22.9835 51.6519 23.1371 52.6304 23.7514 53.5329C24.5352 54.6855 26.0948 55.8572 27.9077 56.6552C28.8339 57.0605 30.3935 57.5862 31.5652 57.8807C33.5174 58.3747 37.2874 58.9099 39.3647 58.989C39.7859 59.0049 40.3464 59.0049 40.3733 58.9859C40.4176 58.9558 40.7422 58.3446 41.1174 57.5767C42.3936 54.9705 43.3167 52.5259 43.8139 50.439C44.1147 49.174 44.349 47.4893 44.501 45.4911C44.5438 44.9306 44.5596 43.0639 44.5264 42.429C44.4869 41.5234 44.3901 40.6212 44.2366 39.7278C44.2165 39.6503 44.2101 39.57 44.2176 39.4903C44.2398 39.4745 44.311 39.4507 45.2468 39.1784L45.0599 38.7414ZM43.3183 39.7626C43.3895 39.7626 43.5716 41.5265 43.6207 42.6443C43.6302 42.8834 43.6286 43.0354 43.6144 43.0354C43.57 43.0354 42.6406 42.4891 41.9804 42.0759C41.3573 41.6834 40.7438 41.2758 40.1405 40.8535C40.0851 40.8092 40.0914 40.8076 40.5617 40.6461C41.3613 40.3706 43.2597 39.7626 43.3199 39.7626H43.3183ZM39.4423 41.034C39.4898 41.034 39.6244 41.1085 39.941 41.3064C41.1285 42.0505 42.7372 42.9451 43.4244 43.246C43.6397 43.341 43.6634 43.303 43.171 43.637C42.1229 44.3495 40.8182 45.0494 39.2174 45.7619C39.0445 45.841 38.8698 45.9159 38.6934 45.9867C38.705 45.8791 38.7279 45.773 38.7614 45.67C39.1494 44.2371 39.3679 42.7884 39.3742 41.6262C39.3774 41.053 39.3774 41.0499 39.4328 41.0356H39.4423V41.034ZM38.6443 41.3396C38.6775 41.3745 38.6538 42.6601 38.6126 43.0116C38.492 44.0012 38.2703 44.9759 37.9508 45.9202C37.9286 45.9471 37.1417 45.1792 36.8804 44.8752C36.4668 44.4061 36.1111 43.8888 35.8212 43.3346C35.6914 43.0781 35.4824 42.5683 35.5014 42.554C35.59 42.4907 38.6221 41.319 38.6443 41.3396ZM34.8839 42.8216C34.8902 42.8216 34.8965 42.8232 34.8997 42.828C34.9348 42.8946 34.9644 42.964 34.9884 43.0354C35.172 43.5341 35.5837 44.2735 35.9415 44.7454C36.4104 45.3662 36.9509 45.9295 37.5518 46.4237C37.5882 46.4554 37.5993 46.449 36.6619 46.8037C35.462 47.2562 34.2509 47.6785 33.0298 48.0704C32.512 48.2382 32.0734 48.3791 32.056 48.387C32.0038 48.4045 32.0196 48.3728 32.1716 48.1369C32.8477 47.0824 33.8705 45.0177 34.4437 43.5579C34.5419 43.3045 34.6369 43.0512 34.6543 42.9942C34.678 42.9119 34.7034 42.8834 34.7809 42.8485C34.8127 42.8319 34.8479 42.8226 34.8839 42.8216ZM33.7312 43.2966C33.747 43.3109 33.4557 43.9268 33.1675 44.4857C32.6118 45.5719 31.9974 46.6406 31.1836 47.9453L30.8954 48.4013C30.8669 48.444 30.8543 48.4298 30.7656 48.2525C30.5586 47.83 30.4095 47.3816 30.3223 46.9193C30.2409 46.3497 30.2515 45.7707 30.3539 45.2045C30.4284 44.8451 30.4252 44.853 30.5946 44.7675C31.3261 44.3923 33.7074 43.276 33.7312 43.2966ZM43.6555 43.7004V43.9442C43.6392 45.5312 43.5043 47.1147 43.2518 48.6815C42.2077 48.3802 41.1999 47.965 40.2466 47.4434C39.6861 47.1362 38.877 46.6406 38.9008 46.6169C38.9055 46.6105 39.1446 46.4855 39.4296 46.3366C40.5601 45.7508 41.6384 45.1175 42.5773 44.4905C42.9288 44.2561 43.456 43.8745 43.5732 43.7716L43.6555 43.7004ZM29.3865 45.3993C29.4103 45.3993 29.4039 45.4436 29.3675 45.6542C29.3361 45.8589 29.3145 46.065 29.3026 46.2717C29.2551 47.114 29.3929 47.7347 29.8093 48.5834C29.9264 48.8209 30.0183 49.0172 30.0135 49.0204C29.9708 49.0568 26.166 50.1699 24.969 50.4976L24.2803 50.6876C24.2375 50.7003 24.2344 50.6908 24.2486 50.5926C24.38 49.7487 25.0244 48.642 25.9238 47.711C26.5223 47.0935 27.0004 46.7261 27.8159 46.2622C28.3341 45.965 28.8577 45.6773 29.3865 45.3993ZM38.3624 47.0064C38.3656 47.0032 38.5065 47.0776 38.6744 47.1758C39.9046 47.8867 41.6194 48.5533 43.0808 48.8874L43.2138 48.919L43.0317 49.0188C42.2685 49.4431 39.7526 50.4897 37.1829 51.4524C36.9117 51.5537 36.6409 51.6561 36.3706 51.7595C36.3295 51.7797 36.2858 51.7941 36.2408 51.8023C36.2408 51.796 36.3469 51.5933 36.4767 51.3495C37.1987 50.0005 37.9175 48.3617 38.288 47.2249C38.3244 47.1093 38.3577 47.0111 38.3624 47.0064ZM37.4473 47.3072C37.4198 47.3985 37.3865 47.4879 37.3475 47.5748C36.7634 48.9543 36.0967 50.2973 35.3509 51.5965C35.2243 51.8286 35.0913 52.0573 34.9519 52.282C34.944 52.282 34.7714 52.1775 34.5656 52.0525C33.3464 51.3051 32.2666 50.3868 31.5573 49.4922L31.4559 49.3655L31.9816 49.2215C33.7047 48.7605 35.3926 48.1769 37.0324 47.475C37.2573 47.38 37.4441 47.3025 37.4473 47.3072ZM43.1314 49.2911C43.133 49.2911 43.1346 49.2927 43.1346 49.2959C43.1346 49.4225 42.8449 50.6069 42.6026 51.465C42.3999 52.1823 42.2289 52.7444 41.9139 53.7403C41.8335 54.009 41.7448 54.2751 41.6479 54.5383C40.0226 54.2605 38.4307 53.8142 36.8979 53.2067C36.5542 53.0722 36.2166 52.9227 35.8861 52.7586C35.8766 52.7475 36.2234 52.5845 36.6556 52.3945C39.276 51.2529 41.9899 49.9514 42.9177 49.3925C42.9825 49.3465 43.0548 49.3122 43.1314 49.2911ZM30.0104 49.7392C30.0246 49.7535 29.2915 50.8016 28.2687 52.2345L27.3393 53.5376C27.1857 53.7577 26.9514 54.1045 26.8184 54.3103L26.5761 54.684L26.3196 54.467C26.0172 54.2137 25.4884 53.6738 25.2477 53.3745C24.7537 52.7586 24.4196 52.111 24.2866 51.5157C24.2264 51.2402 24.2233 51.1009 24.2819 51.0835C25.3012 50.8376 26.322 50.5974 27.344 50.363L29.4024 49.8801C29.7333 49.801 30.0072 49.7376 30.0104 49.7392ZM30.7466 50.021L30.9319 50.2285C31.7056 51.1069 32.618 51.8525 33.633 52.4356C33.8151 52.5401 33.9529 52.632 33.9418 52.6383C31.6631 53.4644 29.3778 54.2719 27.0859 55.0608C27.0467 55.0374 27.0086 55.012 26.9719 54.9848L26.8659 54.9088L27.0321 54.6681C27.5704 53.8875 28.2481 53.0294 29.7317 51.245L30.7466 50.021ZM35.3383 53.3033C35.343 53.2985 35.5995 53.3888 35.9114 53.506C36.6604 53.7862 37.2478 53.9683 38.0442 54.1678C39.0211 54.4132 40.435 54.6586 41.271 54.7283C41.3977 54.7378 41.4642 54.7536 41.4452 54.7663C41.4056 54.7916 40.5585 55.0735 39.9363 55.2698C37.4963 56.012 35.0494 56.7314 32.5959 57.4279C32.5405 57.439 32.3474 57.3883 32.3474 57.3645C32.3474 57.3503 32.4851 57.1761 32.6529 56.975C33.4901 55.9725 34.2704 54.9238 34.9899 53.8337C35.1054 53.6565 35.2215 53.4797 35.3383 53.3033ZM34.3218 53.3318C34.3297 53.3397 33.9212 53.9936 33.2039 55.1241C32.8999 55.6007 32.5564 56.1454 32.4392 56.3306C32.3204 56.5175 32.1479 56.8025 32.056 56.964L31.8866 57.2569L31.8011 57.2347C31.5953 57.1793 30.1402 56.6647 29.757 56.5127C29.2804 56.3227 28.7833 56.0947 28.4175 55.8968C27.9599 55.6498 27.3804 55.2825 27.4248 55.2682L29.1744 54.79C31.695 54.1029 33.0899 53.7086 34.0035 53.422C34.1761 53.3698 34.3186 53.3286 34.3202 53.3318H34.3218ZM41.4832 55.0117H41.4927C41.5164 55.0719 40.5823 57.6559 40.2419 58.476C40.1643 58.6597 40.1374 58.7056 40.0962 58.7025C39.3385 58.6068 38.5822 58.5012 37.8273 58.3858C36.3928 58.1673 33.9909 57.7477 33.3844 57.61L33.2435 57.5783L34.1033 57.3851C35.9463 56.9703 36.8314 56.747 37.7291 56.4715C38.8863 56.1154 40.0174 55.6795 41.1143 55.1669C41.2932 55.0845 41.4468 55.0196 41.4832 55.0117Z" fill="#CC2927"/>
</g>
<defs>
<clipPath id="clip0_238_122">
<rect width="38" height="38" fill="white" transform="translate(21.5 21)"/>
</clipPath>
</defs>
</svg>
