<svg width="81" height="80" viewBox="0 0 81 80" fill="none" xmlns="http://www.w3.org/2000/svg">
<path fill-rule="evenodd" clip-rule="evenodd" d="M68.2659 20.36L43.6249 6.13496C42.6748 5.58641 41.597 5.29762 40.4999 5.29762C39.4028 5.29762 38.325 5.58641 37.3749 6.13496L12.7339 20.361C11.7837 20.9095 10.9947 21.6986 10.4461 22.6488C9.89759 23.599 9.60883 24.6768 9.60889 25.774V54.227C9.609 55.324 9.89785 56.4016 10.4464 57.3516C10.9949 58.3016 11.7839 59.0905 12.7339 59.639L37.3739 73.866C38.324 74.4145 39.4018 74.7033 40.4989 74.7033C41.596 74.7033 42.6738 74.4145 43.6239 73.866L68.2659 59.639C69.2161 59.0904 70.0051 58.3013 70.5536 57.3512C71.1022 56.401 71.3909 55.3231 71.3909 54.226V25.774C71.3909 24.6768 71.1022 23.599 70.5536 22.6488C70.0051 21.6986 69.2161 20.9095 68.2659 20.361V20.36ZM45.4999 2.88796C43.9797 2.01028 42.2553 1.54822 40.4999 1.54822C38.7445 1.54822 37.0201 2.01028 35.4999 2.88796L10.8589 17.113C9.33873 17.9906 8.07638 19.253 7.1987 20.7731C6.32102 22.2933 5.85893 24.0176 5.85889 25.773V54.226C5.85893 55.9813 6.32102 57.7057 7.1987 59.2258C8.07638 60.746 9.33873 62.0083 10.8589 62.886L35.4989 77.113C37.0191 77.9906 38.7435 78.4527 40.4989 78.4527C42.2543 78.4527 43.9787 77.9906 45.4989 77.113L70.1409 62.887C71.661 62.0093 72.9234 60.747 73.8011 59.2268C74.6788 57.7067 75.1408 55.9823 75.1409 54.227V25.774C75.1408 24.0186 74.6788 22.2943 73.8011 20.7741C72.9234 19.254 71.661 17.9916 70.1409 17.114L45.4999 2.88596V2.88796Z" fill="#3178C6"/>
<g clip-path="url(#clip0_238_72)">
<path d="M23.2812 21C22.2948 21 21.5 21.7948 21.5 22.7812V57.2188C21.5 58.2052 22.2948 59 23.2812 59H57.7188C58.7052 59 59.5 58.2052 59.5 57.2188V22.7812C59.5 21.7948 58.7052 21 57.7188 21H23.2812ZM50.7727 36.4375C51.7417 36.4375 52.5998 36.4961 53.3488 36.6133C54.0551 36.7191 54.7483 36.8995 55.4166 37.1516V41.0434C55.0958 40.8216 54.7549 40.6302 54.3985 40.4718C54.0309 40.3064 53.6514 40.1688 53.2633 40.0602C52.5279 39.8553 51.7687 39.7488 51.0054 39.7435C50.5304 39.7435 50.0982 39.7878 49.7087 39.8797C49.3615 39.9539 49.0285 40.0833 48.7223 40.2628C48.4531 40.4275 48.2472 40.6254 48.1 40.855C47.9519 41.0864 47.8748 41.3561 47.8783 41.6308C47.8783 41.9412 47.9622 42.2214 48.1253 42.4684C48.29 42.7154 48.5243 42.9498 48.8268 43.1714C49.1292 43.3931 49.4965 43.6084 49.9288 43.8206C50.361 44.0343 50.8503 44.2544 51.3949 44.4793C52.1391 44.7912 52.8072 45.1237 53.3994 45.4736C53.9916 45.8251 54.4998 46.2225 54.9242 46.6658C55.3485 47.1076 55.6715 47.6127 55.8963 48.1811C56.1212 48.7495 56.2352 49.4097 56.2352 50.165C56.2352 51.2053 56.0373 52.0808 55.6446 52.787C55.2609 53.4835 54.7103 54.0738 54.0423 54.5049C53.3221 54.9615 52.524 55.2814 51.6878 55.4486C50.7917 55.6386 49.8464 55.7336 48.8537 55.7336C47.8766 55.7379 46.9012 55.6509 45.9403 55.4739C45.109 55.3301 44.3027 55.0672 43.5463 54.6933V50.5292C44.9773 51.7469 46.7926 52.4199 48.6716 52.4292C49.1988 52.4292 49.6596 52.3817 50.0523 52.2867C50.4465 52.1917 50.7743 52.0587 51.0387 51.8908C51.3015 51.7198 51.4978 51.5203 51.6292 51.2892C51.7745 51.02 51.8406 50.7152 51.8198 50.4101C51.7991 50.105 51.6924 49.8119 51.5121 49.5649C51.2768 49.2536 50.9891 48.9857 50.6618 48.7733C50.256 48.5042 49.8286 48.2691 49.3841 48.0703C48.8572 47.8296 48.3256 47.5995 47.7897 47.3799C46.3362 46.7735 45.2532 46.0309 44.5391 45.1553C43.8266 44.2798 43.4688 43.2205 43.4688 41.9808C43.4688 41.0086 43.6635 40.1742 44.053 39.4759C44.4425 38.7777 44.9713 38.2029 45.6427 37.7517C46.3527 37.2832 47.141 36.9459 47.9702 36.7558C48.8885 36.5392 49.8292 36.4324 50.7727 36.4375ZM26.8438 36.7352H41.9852V40.1647H36.5512V55.4375H32.2493V40.1647H26.8438V36.7352Z" fill="#3178C6"/>
</g>
<defs>
<clipPath id="clip0_238_72">
<rect width="38" height="38" fill="white" transform="translate(21.5 21)"/>
</clipPath>
</defs>
</svg>
